<svg id="visual" viewBox="0 0 900 600" width="900" height="600" xmlns="http://www.w3.org/2000/svg" xmlns:xlink="http://www.w3.org/1999/xlink" version="1.1"><path d="M0 93L8.8 95C17.7 97 35.3 101 53 98.7C70.7 96.3 88.3 87.7 106 86.5C123.7 85.3 141.3 91.7 159 91.8C176.7 92 194.3 86 212 86.2C229.7 86.3 247.3 92.7 265 94.2C282.7 95.7 300.3 92.3 318 93C335.7 93.7 353.3 98.3 371 97.3C388.7 96.3 406.3 89.7 423.8 89.8C441.3 90 458.7 97 476.2 98.8C493.7 100.7 511.3 97.3 529 94.7C546.7 92 564.3 90 582 89.2C599.7 88.3 617.3 88.7 635 90C652.7 91.3 670.3 93.7 688 93.2C705.7 92.7 723.3 89.3 741 86.3C758.7 83.3 776.3 80.7 794 81.8C811.7 83 829.3 88 847 91.7C864.7 95.3 882.3 97.7 891.2 98.8L900 100L900 0L891.2 0C882.3 0 864.7 0 847 0C829.3 0 811.7 0 794 0C776.3 0 758.7 0 741 0C723.3 0 705.7 0 688 0C670.3 0 652.7 0 635 0C617.3 0 599.7 0 582 0C564.3 0 546.7 0 529 0C511.3 0 493.7 0 476.2 0C458.7 0 441.3 0 423.8 0C406.3 0 388.7 0 371 0C353.3 0 335.7 0 318 0C300.3 0 282.7 0 265 0C247.3 0 229.7 0 212 0C194.3 0 176.7 0 159 0C141.3 0 123.7 0 106 0C88.3 0 70.7 0 53 0C35.3 0 17.7 0 8.8 0L0 0Z" fill="#6fe1b0"></path><path d="M0 86L8.8 84.5C17.7 83 35.3 80 53 77.8C70.7 75.7 88.3 74.3 106 72.7C123.7 71 141.3 69 159 68.8C176.7 68.7 194.3 70.3 212 70.5C229.7 70.7 247.3 69.3 265 71.2C282.7 73 300.3 78 318 77.2C335.7 76.3 353.3 69.7 371 66C388.7 62.3 406.3 61.7 423.8 61.8C441.3 62 458.7 63 476.2 63.8C493.7 64.7 511.3 65.3 529 68.2C546.7 71 564.3 76 582 77C599.7 78 617.3 75 635 72.3C652.7 69.7 670.3 67.3 688 68C705.7 68.7 723.3 72.3 741 74.3C758.7 76.3 776.3 76.7 794 74.3C811.7 72 829.3 67 847 67.5C864.7 68 882.3 74 891.2 77L900 80L900 0L891.2 0C882.3 0 864.7 0 847 0C829.3 0 811.7 0 794 0C776.3 0 758.7 0 741 0C723.3 0 705.7 0 688 0C670.3 0 652.7 0 635 0C617.3 0 599.7 0 582 0C564.3 0 546.7 0 529 0C511.3 0 493.7 0 476.2 0C458.7 0 441.3 0 423.8 0C406.3 0 388.7 0 371 0C353.3 0 335.7 0 318 0C300.3 0 282.7 0 265 0C247.3 0 229.7 0 212 0C194.3 0 176.7 0 159 0C141.3 0 123.7 0 106 0C88.3 0 70.7 0 53 0C35.3 0 17.7 0 8.8 0L0 0Z" fill="#9bc761"></path><path d="M0 67L8.8 66.2C17.7 65.3 35.3 63.7 53 62.3C70.7 61 88.3 60 106 57.8C123.7 55.7 141.3 52.3 159 53.3C176.7 54.3 194.3 59.7 212 61.7C229.7 63.7 247.3 62.3 265 60.3C282.7 58.3 300.3 55.7 318 53.2C335.7 50.7 353.3 48.3 371 50.2C388.7 52 406.3 58 423.8 57.8C441.3 57.7 458.7 51.3 476.2 50.5C493.7 49.7 511.3 54.3 529 57.2C546.7 60 564.3 61 582 60.2C599.7 59.3 617.3 56.7 635 57.3C652.7 58 670.3 62 688 62.2C705.7 62.3 723.3 58.7 741 55.8C758.7 53 776.3 51 794 49.3C811.7 47.7 829.3 46.3 847 47.3C864.7 48.3 882.3 51.7 891.2 53.3L900 55L900 0L891.2 0C882.3 0 864.7 0 847 0C829.3 0 811.7 0 794 0C776.3 0 758.7 0 741 0C723.3 0 705.7 0 688 0C670.3 0 652.7 0 635 0C617.3 0 599.7 0 582 0C564.3 0 546.7 0 529 0C511.3 0 493.7 0 476.2 0C458.7 0 441.3 0 423.8 0C406.3 0 388.7 0 371 0C353.3 0 335.7 0 318 0C300.3 0 282.7 0 265 0C247.3 0 229.7 0 212 0C194.3 0 176.7 0 159 0C141.3 0 123.7 0 106 0C88.3 0 70.7 0 53 0C35.3 0 17.7 0 8.8 0L0 0Z" fill="#cba123"></path><path d="M0 32L8.8 31.2C17.7 30.3 35.3 28.7 53 28C70.7 27.3 88.3 27.7 106 28.7C123.7 29.7 141.3 31.3 159 31.7C176.7 32 194.3 31 212 32.8C229.7 34.7 247.3 39.3 265 40.7C282.7 42 300.3 40 318 37.7C335.7 35.3 353.3 32.7 371 32.3C388.7 32 406.3 34 423.8 36C441.3 38 458.7 40 476.2 40C493.7 40 511.3 38 529 35.5C546.7 33 564.3 30 582 30.2C599.7 30.3 617.3 33.7 635 34C652.7 34.3 670.3 31.7 688 32.7C705.7 33.7 723.3 38.3 741 38.3C758.7 38.3 776.3 33.7 794 34C811.7 34.3 829.3 39.7 847 39.2C864.7 38.7 882.3 32.3 891.2 29.2L900 26L900 0L891.2 0C882.3 0 864.7 0 847 0C829.3 0 811.7 0 794 0C776.3 0 758.7 0 741 0C723.3 0 705.7 0 688 0C670.3 0 652.7 0 635 0C617.3 0 599.7 0 582 0C564.3 0 546.7 0 529 0C511.3 0 493.7 0 476.2 0C458.7 0 441.3 0 423.8 0C406.3 0 388.7 0 371 0C353.3 0 335.7 0 318 0C300.3 0 282.7 0 265 0C247.3 0 229.7 0 212 0C194.3 0 176.7 0 159 0C141.3 0 123.7 0 106 0C88.3 0 70.7 0 53 0C35.3 0 17.7 0 8.8 0L0 0Z" fill="#f36a30"></path><path d="M0 19L8.8 18.8C17.7 18.7 35.3 18.3 53 19C70.7 19.7 88.3 21.3 106 22.3C123.7 23.3 141.3 23.7 159 24C176.7 24.3 194.3 24.7 212 23.5C229.7 22.3 247.3 19.7 265 19.2C282.7 18.7 300.3 20.3 318 21.8C335.7 23.3 353.3 24.7 371 24.3C388.7 24 406.3 22 423.8 22.3C441.3 22.7 458.7 25.3 476.2 26.7C493.7 28 511.3 28 529 25C546.7 22 564.3 16 582 13.7C599.7 11.3 617.3 12.7 635 13.7C652.7 14.7 670.3 15.3 688 17.8C705.7 20.3 723.3 24.7 741 26.8C758.7 29 776.3 29 794 27C811.7 25 829.3 21 847 19.8C864.7 18.7 882.3 20.3 891.2 21.2L900 22L900 0L891.2 0C882.3 0 864.7 0 847 0C829.3 0 811.7 0 794 0C776.3 0 758.7 0 741 0C723.3 0 705.7 0 688 0C670.3 0 652.7 0 635 0C617.3 0 599.7 0 582 0C564.3 0 546.7 0 529 0C511.3 0 493.7 0 476.2 0C458.7 0 441.3 0 423.8 0C406.3 0 388.7 0 371 0C353.3 0 335.7 0 318 0C300.3 0 282.7 0 265 0C247.3 0 229.7 0 212 0C194.3 0 176.7 0 159 0C141.3 0 123.7 0 106 0C88.3 0 70.7 0 53 0C35.3 0 17.7 0 8.8 0L0 0Z" fill="#ff026b"></path></svg>