<svg id="visual" viewBox="0 0 900 600" width="900" height="600" xmlns="http://www.w3.org/2000/svg" xmlns:xlink="http://www.w3.org/1999/xlink" version="1.1"><path d="M0 165L13.7 171.7C27.3 178.3 54.7 191.7 82 191.2C109.3 190.7 136.7 176.3 163.8 174.2C191 172 218 182 245.2 189.2C272.3 196.3 299.7 200.7 327 201.3C354.3 202 381.7 199 409 190.8C436.3 182.7 463.7 169.3 491 168.7C518.3 168 545.7 180 573 183C600.3 186 627.7 180 654.8 182.5C682 185 709 196 736.2 195.7C763.3 195.3 790.7 183.7 818 183.7C845.3 183.7 872.7 195.3 886.3 201.2L900 207L900 0L886.3 0C872.7 0 845.3 0 818 0C790.7 0 763.3 0 736.2 0C709 0 682 0 654.8 0C627.7 0 600.3 0 573 0C545.7 0 518.3 0 491 0C463.7 0 436.3 0 409 0C381.7 0 354.3 0 327 0C299.7 0 272.3 0 245.2 0C218 0 191 0 163.8 0C136.7 0 109.3 0 82 0C54.7 0 27.3 0 13.7 0L0 0Z" fill="#6fe1b0"></path><path d="M0 137L13.7 141C27.3 145 54.7 153 82 153.8C109.3 154.7 136.7 148.3 163.8 149.5C191 150.7 218 159.3 245.2 156.2C272.3 153 299.7 138 327 130.2C354.3 122.3 381.7 121.7 409 126C436.3 130.3 463.7 139.7 491 148C518.3 156.3 545.7 163.7 573 159.8C600.3 156 627.7 141 654.8 132.8C682 124.7 709 123.3 736.2 127.8C763.3 132.3 790.7 142.7 818 145.2C845.3 147.7 872.7 142.3 886.3 139.7L900 137L900 0L886.3 0C872.7 0 845.3 0 818 0C790.7 0 763.3 0 736.2 0C709 0 682 0 654.8 0C627.7 0 600.3 0 573 0C545.7 0 518.3 0 491 0C463.7 0 436.3 0 409 0C381.7 0 354.3 0 327 0C299.7 0 272.3 0 245.2 0C218 0 191 0 163.8 0C136.7 0 109.3 0 82 0C54.7 0 27.3 0 13.7 0L0 0Z" fill="#9bc761"></path><path d="M0 111L13.7 111.2C27.3 111.3 54.7 111.7 82 115.3C109.3 119 136.7 126 163.8 124C191 122 218 111 245.2 107.3C272.3 103.7 299.7 107.3 327 108.8C354.3 110.3 381.7 109.7 409 107.5C436.3 105.3 463.7 101.7 491 106C518.3 110.3 545.7 122.7 573 123.7C600.3 124.7 627.7 114.3 654.8 113.7C682 113 709 122 736.2 123.3C763.3 124.7 790.7 118.3 818 119C845.3 119.7 872.7 127.3 886.3 131.2L900 135L900 0L886.3 0C872.7 0 845.3 0 818 0C790.7 0 763.3 0 736.2 0C709 0 682 0 654.8 0C627.7 0 600.3 0 573 0C545.7 0 518.3 0 491 0C463.7 0 436.3 0 409 0C381.7 0 354.3 0 327 0C299.7 0 272.3 0 245.2 0C218 0 191 0 163.8 0C136.7 0 109.3 0 82 0C54.7 0 27.3 0 13.7 0L0 0Z" fill="#cba123"></path><path d="M0 69L13.7 70.2C27.3 71.3 54.7 73.7 82 73.3C109.3 73 136.7 70 163.8 70.2C191 70.3 218 73.7 245.2 75.8C272.3 78 299.7 79 327 82.2C354.3 85.3 381.7 90.7 409 91.5C436.3 92.3 463.7 88.7 491 85.3C518.3 82 545.7 79 573 78.7C600.3 78.3 627.7 80.7 654.8 81.8C682 83 709 83 736.2 82.3C763.3 81.7 790.7 80.3 818 78.2C845.3 76 872.7 73 886.3 71.5L900 70L900 0L886.3 0C872.7 0 845.3 0 818 0C790.7 0 763.3 0 736.2 0C709 0 682 0 654.8 0C627.7 0 600.3 0 573 0C545.7 0 518.3 0 491 0C463.7 0 436.3 0 409 0C381.7 0 354.3 0 327 0C299.7 0 272.3 0 245.2 0C218 0 191 0 163.8 0C136.7 0 109.3 0 82 0C54.7 0 27.3 0 13.7 0L0 0Z" fill="#f36a30"></path><path d="M0 37L13.7 39.7C27.3 42.3 54.7 47.7 82 49.2C109.3 50.7 136.7 48.3 163.8 43.8C191 39.3 218 32.7 245.2 32.5C272.3 32.3 299.7 38.7 327 40.2C354.3 41.7 381.7 38.3 409 39.8C436.3 41.3 463.7 47.7 491 50.8C518.3 54 545.7 54 573 53.8C600.3 53.7 627.7 53.3 654.8 50C682 46.7 709 40.3 736.2 37.7C763.3 35 790.7 36 818 33.8C845.3 31.7 872.7 26.3 886.3 23.7L900 21L900 0L886.3 0C872.7 0 845.3 0 818 0C790.7 0 763.3 0 736.2 0C709 0 682 0 654.8 0C627.7 0 600.3 0 573 0C545.7 0 518.3 0 491 0C463.7 0 436.3 0 409 0C381.7 0 354.3 0 327 0C299.7 0 272.3 0 245.2 0C218 0 191 0 163.8 0C136.7 0 109.3 0 82 0C54.7 0 27.3 0 13.7 0L0 0Z" fill="#ff026b"></path></svg>