<svg id="visual" viewBox="0 0 900 600" width="900" height="600" xmlns="http://www.w3.org/2000/svg" xmlns:xlink="http://www.w3.org/1999/xlink" version="1.1"><path d="M0 43L6.5 42.8C13 42.7 26 42.3 39 43.7C52 45 65 48 78 47.7C91 47.3 104 43.7 117.2 43.5C130.3 43.3 143.7 46.7 156.8 48C170 49.3 183 48.7 196 48.7C209 48.7 222 49.3 235 48C248 46.7 261 43.3 274 43.7C287 44 300 48 313 48.8C326 49.7 339 47.3 352 46.2C365 45 378 45 391 45.3C404 45.7 417 46.3 430.2 46.3C443.3 46.3 456.7 45.7 469.8 46.2C483 46.7 496 48.3 509 47.2C522 46 535 42 548 41C561 40 574 42 587 42.8C600 43.7 613 43.3 626 43C639 42.7 652 42.3 665 42.2C678 42 691 42 704 41.5C717 41 730 40 743.2 39.8C756.3 39.7 769.7 40.3 782.8 40.3C796 40.3 809 39.7 822 39.7C835 39.7 848 40.3 861 41.5C874 42.7 887 44.3 893.5 45.2L900 46L900 0L893.5 0C887 0 874 0 861 0C848 0 835 0 822 0C809 0 796 0 782.8 0C769.7 0 756.3 0 743.2 0C730 0 717 0 704 0C691 0 678 0 665 0C652 0 639 0 626 0C613 0 600 0 587 0C574 0 561 0 548 0C535 0 522 0 509 0C496 0 483 0 469.8 0C456.7 0 443.3 0 430.2 0C417 0 404 0 391 0C378 0 365 0 352 0C339 0 326 0 313 0C300 0 287 0 274 0C261 0 248 0 235 0C222 0 209 0 196 0C183 0 170 0 156.8 0C143.7 0 130.3 0 117.2 0C104 0 91 0 78 0C65 0 52 0 39 0C26 0 13 0 6.5 0L0 0Z" fill="#6fe1b0"></path><path d="M0 38L6.5 36.8C13 35.7 26 33.3 39 32.5C52 31.7 65 32.3 78 33.2C91 34 104 35 117.2 36.3C130.3 37.7 143.7 39.3 156.8 38.8C170 38.3 183 35.7 196 35.3C209 35 222 37 235 37.2C248 37.3 261 35.7 274 34.3C287 33 300 32 313 32.7C326 33.3 339 35.7 352 36C365 36.3 378 34.7 391 33.7C404 32.7 417 32.3 430.2 32.3C443.3 32.3 456.7 32.7 469.8 32.3C483 32 496 31 509 31.5C522 32 535 34 548 34.3C561 34.7 574 33.3 587 33.2C600 33 613 34 626 35C639 36 652 37 665 36.3C678 35.7 691 33.3 704 32.3C717 31.3 730 31.7 743.2 33.2C756.3 34.7 769.7 37.3 782.8 38.2C796 39 809 38 822 38.3C835 38.7 848 40.3 861 40.8C874 41.3 887 40.7 893.5 40.3L900 40L900 0L893.5 0C887 0 874 0 861 0C848 0 835 0 822 0C809 0 796 0 782.8 0C769.7 0 756.3 0 743.2 0C730 0 717 0 704 0C691 0 678 0 665 0C652 0 639 0 626 0C613 0 600 0 587 0C574 0 561 0 548 0C535 0 522 0 509 0C496 0 483 0 469.8 0C456.7 0 443.3 0 430.2 0C417 0 404 0 391 0C378 0 365 0 352 0C339 0 326 0 313 0C300 0 287 0 274 0C261 0 248 0 235 0C222 0 209 0 196 0C183 0 170 0 156.8 0C143.7 0 130.3 0 117.2 0C104 0 91 0 78 0C65 0 52 0 39 0C26 0 13 0 6.5 0L0 0Z" fill="#9bc761"></path><path d="M0 26L6.5 27C13 28 26 30 39 30.8C52 31.7 65 31.3 78 31C91 30.7 104 30.3 117.2 29.7C130.3 29 143.7 28 156.8 27.2C170 26.3 183 25.7 196 24.8C209 24 222 23 235 23C248 23 261 24 274 24C287 24 300 23 313 24C326 25 339 28 352 28.2C365 28.3 378 25.7 391 24.2C404 22.7 417 22.3 430.2 22.7C443.3 23 456.7 24 469.8 25C483 26 496 27 509 28.2C522 29.3 535 30.7 548 30.5C561 30.3 574 28.7 587 28.5C600 28.3 613 29.7 626 29.3C639 29 652 27 665 27C678 27 691 29 704 28.7C717 28.3 730 25.7 743.2 25.3C756.3 25 769.7 27 782.8 27C796 27 809 25 822 25C835 25 848 27 861 28.5C874 30 887 31 893.5 31.5L900 32L900 0L893.5 0C887 0 874 0 861 0C848 0 835 0 822 0C809 0 796 0 782.8 0C769.7 0 756.3 0 743.2 0C730 0 717 0 704 0C691 0 678 0 665 0C652 0 639 0 626 0C613 0 600 0 587 0C574 0 561 0 548 0C535 0 522 0 509 0C496 0 483 0 469.8 0C456.7 0 443.3 0 430.2 0C417 0 404 0 391 0C378 0 365 0 352 0C339 0 326 0 313 0C300 0 287 0 274 0C261 0 248 0 235 0C222 0 209 0 196 0C183 0 170 0 156.8 0C143.7 0 130.3 0 117.2 0C104 0 91 0 78 0C65 0 52 0 39 0C26 0 13 0 6.5 0L0 0Z" fill="#cba123"></path><path d="M0 23L6.5 22.2C13 21.3 26 19.7 39 19.2C52 18.7 65 19.3 78 18.5C91 17.7 104 15.3 117.2 14.3C130.3 13.3 143.7 13.7 156.8 14.7C170 15.7 183 17.3 196 18C209 18.7 222 18.3 235 17.3C248 16.3 261 14.7 274 15.5C287 16.3 300 19.7 313 20.8C326 22 339 21 352 19.7C365 18.3 378 16.7 391 17.2C404 17.7 417 20.3 430.2 20.3C443.3 20.3 456.7 17.7 469.8 16.5C483 15.3 496 15.7 509 16.3C522 17 535 18 548 19.2C561 20.3 574 21.7 587 21.5C600 21.3 613 19.7 626 19.7C639 19.7 652 21.3 665 21.2C678 21 691 19 704 18.8C717 18.7 730 20.3 743.2 20.3C756.3 20.3 769.7 18.7 782.8 18.5C796 18.3 809 19.7 822 19.3C835 19 848 17 861 16.7C874 16.3 887 17.7 893.5 18.3L900 19L900 0L893.5 0C887 0 874 0 861 0C848 0 835 0 822 0C809 0 796 0 782.8 0C769.7 0 756.3 0 743.2 0C730 0 717 0 704 0C691 0 678 0 665 0C652 0 639 0 626 0C613 0 600 0 587 0C574 0 561 0 548 0C535 0 522 0 509 0C496 0 483 0 469.8 0C456.7 0 443.3 0 430.2 0C417 0 404 0 391 0C378 0 365 0 352 0C339 0 326 0 313 0C300 0 287 0 274 0C261 0 248 0 235 0C222 0 209 0 196 0C183 0 170 0 156.8 0C143.7 0 130.3 0 117.2 0C104 0 91 0 78 0C65 0 52 0 39 0C26 0 13 0 6.5 0L0 0Z" fill="#f36a30"></path><path d="M0 8L6.5 8.5C13 9 26 10 39 10.3C52 10.7 65 10.3 78 9.2C91 8 104 6 117.2 6C130.3 6 143.7 8 156.8 8.5C170 9 183 8 196 7.8C209 7.7 222 8.3 235 9.5C248 10.7 261 12.3 274 13.2C287 14 300 14 313 13.8C326 13.7 339 13.3 352 11.8C365 10.3 378 7.7 391 7.5C404 7.3 417 9.7 430.2 9.8C443.3 10 456.7 8 469.8 7.5C483 7 496 8 509 8.2C522 8.3 535 7.7 548 7.2C561 6.7 574 6.3 587 7.5C600 8.7 613 11.3 626 12.5C639 13.7 652 13.3 665 11.7C678 10 691 7 704 6.8C717 6.7 730 9.3 743.2 9.5C756.3 9.7 769.7 7.3 782.8 7.3C796 7.3 809 9.7 822 10.2C835 10.7 848 9.3 861 9.5C874 9.7 887 11.3 893.5 12.2L900 13L900 0L893.5 0C887 0 874 0 861 0C848 0 835 0 822 0C809 0 796 0 782.8 0C769.7 0 756.3 0 743.2 0C730 0 717 0 704 0C691 0 678 0 665 0C652 0 639 0 626 0C613 0 600 0 587 0C574 0 561 0 548 0C535 0 522 0 509 0C496 0 483 0 469.8 0C456.7 0 443.3 0 430.2 0C417 0 404 0 391 0C378 0 365 0 352 0C339 0 326 0 313 0C300 0 287 0 274 0C261 0 248 0 235 0C222 0 209 0 196 0C183 0 170 0 156.8 0C143.7 0 130.3 0 117.2 0C104 0 91 0 78 0C65 0 52 0 39 0C26 0 13 0 6.5 0L0 0Z" fill="#ff026b"></path></svg>